<svg width="20" height="18" viewBox="0 0 20 18" fill="none" xmlns="http://www.w3.org/2000/svg">
<path d="M1 3L4.10557 1.44721C4.66863 1.16569 5.33137 1.16569 5.89443 1.44721L7.31672 2.15836C9.00588 3.00294 10.9941 3.00294 12.6833 2.15836L14.1056 1.44721C14.6686 1.16569 15.3314 1.16569 15.8944 1.44721L19 3M1 7.5L4.10557 5.94721C4.66863 5.66569 5.33137 5.66569 5.89443 5.94721L7.31672 6.65836C9.00588 7.50294 10.9941 7.50294 12.6833 6.65836L14.1056 5.94721C14.6686 5.66569 15.3314 5.66569 15.8944 5.94721L19 7.5M1 12L4.10557 10.4472C4.66863 10.1657 5.33137 10.1657 5.89443 10.4472L7.31672 11.1584C9.00588 12.0029 10.9941 12.0029 12.6833 11.1584L14.1056 10.4472C14.6686 10.1657 15.3314 10.1657 15.8944 10.4472L19 12M1 16.5L4.10557 14.9472C4.66863 14.6657 5.33137 14.6657 5.89443 14.9472L7.31672 15.6584C9.00588 16.5029 10.9941 16.5029 12.6833 15.6584L14.1056 14.9472C14.6686 14.6657 15.3314 14.6657 15.8944 14.9472L19 16.5" stroke="white" stroke-width="2" stroke-linecap="round" stroke-linejoin="round"/>
</svg>
